<svg width="26" height="26" viewBox="0 0 26 26" fill="none" xmlns="http://www.w3.org/2000/svg">
<path d="M15.0732 2.81718L17.1849 7.04071C17.4729 7.62866 18.2408 8.19258 18.8888 8.30057L22.7163 8.9365C25.164 9.34445 25.74 11.1202 23.9762 12.872L21.0005 15.8477C20.4966 16.3517 20.2206 17.3235 20.3766 18.0195L21.2285 21.7031C21.9004 24.6187 20.3526 25.7466 17.7729 24.2228L14.1853 22.099C13.5374 21.7151 12.4695 21.7151 11.8095 22.099L8.22191 24.2228C5.6542 25.7466 4.09437 24.6067 4.7663 21.7031L5.6182 18.0195C5.77418 17.3235 5.49821 16.3517 4.99427 15.8477L2.0186 12.872C0.266801 11.1202 0.830738 9.34445 3.27846 8.9365L7.10603 8.30057C7.74196 8.19258 8.50988 7.62866 8.79785 7.04071L10.9096 2.81718C12.0615 0.525441 13.9333 0.525441 15.0732 2.81718Z" fill="#F6FB00" stroke="#292D32" stroke-width="0.841001" stroke-linecap="round" stroke-linejoin="round"/>
</svg>
